<svg width="369" height="369" viewBox="0 0 369 369" fill="none" xmlns="http://www.w3.org/2000/svg">
<path d="M316.101 183.5C316.101 255.853 257.894 314.5 186.101 314.5C114.307 314.5 56.1006 255.853 56.1006 183.5C56.1006 111.147 114.307 52.5 186.101 52.5C257.894 52.5 316.101 111.147 316.101 183.5Z" fill="#030303" stroke="#37AE47"/>
<path d="M302.101 185.5C302.101 248.458 250.839 299.5 187.601 299.5C124.362 299.5 73.1006 248.458 73.1006 185.5C73.1006 122.542 124.362 71.5 187.601 71.5C250.839 71.5 302.101 122.542 302.101 185.5Z" stroke="#37AE47"/>
<path d="M278.101 183C278.101 234.084 236.466 275.5 185.101 275.5C133.736 275.5 92.1006 234.084 92.1006 183C92.1006 131.916 133.736 90.5 185.101 90.5C236.466 90.5 278.101 131.916 278.101 183Z" stroke="#37AE47"/>
<path d="M254.101 184C254.101 220.734 224.768 250.5 188.601 250.5C152.433 250.5 123.101 220.734 123.101 184C123.101 147.266 152.433 117.5 188.601 117.5C224.768 117.5 254.101 147.266 254.101 184Z" stroke="#24A64D"/>
<ellipse cx="184.399" cy="184.346" rx="131" ry="130.5" transform="rotate(-40.6371 184.399 184.346)" fill="url(#paint0_angular_163_134)"/>
<path d="M69.2144 186.779C66.4844 186.779 64.1394 186.254 62.1794 185.204C60.2194 184.154 58.7144 182.672 57.6644 180.759C56.6377 178.845 56.1244 176.605 56.1244 174.039C56.1244 172.125 56.4161 170.387 56.9994 168.824C57.6061 167.26 58.4694 165.919 59.5894 164.799C60.7327 163.679 62.1094 162.827 63.7194 162.244C65.3527 161.637 67.1844 161.334 69.2144 161.334C70.2877 161.334 71.3961 161.462 72.5394 161.719C73.7061 161.952 74.7327 162.314 75.6194 162.804C76.2727 163.154 76.7277 163.597 76.9844 164.134C77.2411 164.67 77.3227 165.219 77.2294 165.779C77.1594 166.339 76.9611 166.84 76.6344 167.284C76.3077 167.727 75.8877 168.03 75.3744 168.194C74.8611 168.334 74.3011 168.252 73.6944 167.949C72.9944 167.622 72.2944 167.377 71.5944 167.214C70.9177 167.027 70.2061 166.934 69.4594 166.934C68.0127 166.934 66.7994 167.214 65.8194 167.774C64.8627 168.31 64.1394 169.104 63.6494 170.154C63.1594 171.204 62.9144 172.499 62.9144 174.039C62.9144 175.579 63.1594 176.885 63.6494 177.959C64.1394 179.009 64.8627 179.814 65.8194 180.374C66.7994 180.91 68.0127 181.179 69.4594 181.179C70.0661 181.179 70.7194 181.109 71.4194 180.969C72.1194 180.805 72.8077 180.56 73.4844 180.234C74.1844 179.93 74.8027 179.849 75.3394 179.989C75.8994 180.129 76.3427 180.409 76.6694 180.829C77.0194 181.249 77.2411 181.739 77.3344 182.299C77.4277 182.835 77.3461 183.372 77.0894 183.909C76.8561 184.445 76.4361 184.877 75.8294 185.204C75.0127 185.694 73.9977 186.079 72.7844 186.359C71.5944 186.639 70.4044 186.779 69.2144 186.779ZM91.7711 186.779C89.9744 186.779 88.3878 186.557 87.0111 186.114C85.6344 185.647 84.4678 184.959 83.5111 184.049C82.5778 183.139 81.8661 182.007 81.3761 180.654C80.9094 179.277 80.6761 177.69 80.6761 175.894L80.6761 164.659C80.6761 163.585 80.9561 162.78 81.5161 162.244C82.0761 161.684 82.8694 161.404 83.8961 161.404C84.9461 161.404 85.7394 161.684 86.2761 162.244C86.8361 162.78 87.1161 163.585 87.1161 164.659L87.1161 175.964C87.1161 177.76 87.5128 179.114 88.3061 180.024C89.0994 180.934 90.2544 181.389 91.7711 181.389C93.2644 181.389 94.4078 180.934 95.2011 180.024C95.9944 179.114 96.3911 177.76 96.3911 175.964L96.3911 164.659C96.3911 163.585 96.6594 162.78 97.1961 162.244C97.7561 161.684 98.5494 161.404 99.5761 161.404C100.603 161.404 101.384 161.684 101.921 162.244C102.458 162.78 102.726 163.585 102.726 164.659L102.726 175.894C102.726 178.297 102.306 180.315 101.466 181.949C100.649 183.559 99.4244 184.772 97.7911 185.589C96.1578 186.382 94.1511 186.779 91.7711 186.779ZM116.203 186.779C115.269 186.779 114.289 186.709 113.263 186.569C112.259 186.452 111.303 186.265 110.393 186.009C109.483 185.752 108.666 185.449 107.943 185.099C107.313 184.795 106.869 184.399 106.613 183.909C106.356 183.395 106.263 182.859 106.333 182.299C106.403 181.739 106.601 181.249 106.928 180.829C107.254 180.385 107.686 180.094 108.223 179.954C108.759 179.79 109.366 179.86 110.043 180.164C110.929 180.584 111.933 180.91 113.053 181.144C114.173 181.377 115.223 181.494 116.203 181.494C117.743 181.494 118.816 181.295 119.423 180.899C120.053 180.479 120.368 179.965 120.368 179.359C120.368 178.822 120.146 178.39 119.703 178.064C119.283 177.737 118.524 177.457 117.428 177.224L113.333 176.349C111.093 175.882 109.424 175.065 108.328 173.899C107.231 172.732 106.683 171.227 106.683 169.384C106.683 168.17 106.928 167.074 107.418 166.094C107.931 165.09 108.643 164.239 109.553 163.539C110.486 162.839 111.583 162.302 112.843 161.929C114.126 161.532 115.549 161.334 117.113 161.334C118.326 161.334 119.551 161.474 120.788 161.754C122.048 162.01 123.133 162.407 124.043 162.944C124.579 163.224 124.964 163.609 125.198 164.099C125.431 164.589 125.524 165.102 125.478 165.639C125.431 166.152 125.244 166.607 124.918 167.004C124.614 167.4 124.194 167.669 123.658 167.809C123.144 167.925 122.526 167.832 121.803 167.529C121.126 167.225 120.356 167.004 119.493 166.864C118.653 166.7 117.836 166.619 117.043 166.619C116.179 166.619 115.444 166.724 114.838 166.934C114.231 167.12 113.764 167.4 113.438 167.774C113.134 168.147 112.983 168.579 112.983 169.069C112.983 169.559 113.181 169.979 113.578 170.329C113.998 170.655 114.756 170.935 115.853 171.169L119.913 172.044C122.176 172.534 123.868 173.339 124.988 174.459C126.108 175.579 126.668 177.037 126.668 178.834C126.668 180.047 126.423 181.144 125.933 182.124C125.443 183.104 124.743 183.944 123.833 184.644C122.923 185.32 121.826 185.845 120.543 186.219C119.259 186.592 117.813 186.779 116.203 186.779ZM130.712 186.709C129.989 186.709 129.382 186.545 128.892 186.219C128.402 185.869 128.099 185.402 127.982 184.819C127.865 184.212 127.97 183.535 128.297 182.789L137.012 164.029C137.432 163.119 137.945 162.454 138.552 162.034C139.182 161.614 139.894 161.404 140.687 161.404C141.48 161.404 142.169 161.614 142.752 162.034C143.359 162.454 143.884 163.119 144.327 164.029L153.042 182.789C153.415 183.535 153.544 184.212 153.427 184.819C153.334 185.425 153.042 185.892 152.552 186.219C152.085 186.545 151.502 186.709 150.802 186.709C149.869 186.709 149.145 186.499 148.632 186.079C148.142 185.659 147.699 184.982 147.302 184.049L145.412 179.604L147.862 181.389L133.442 181.389L135.927 179.604L134.037 184.049C133.617 184.982 133.185 185.659 132.742 186.079C132.299 186.499 131.622 186.709 130.712 186.709ZM140.617 168.439L136.557 178.134L135.577 176.454L145.762 176.454L144.782 178.134L140.687 168.439L140.617 168.439ZM162.513 186.709C161.486 186.709 160.693 186.429 160.133 185.869C159.573 185.285 159.293 184.48 159.293 183.454L159.293 166.969L153.798 166.969C152.935 166.969 152.27 166.747 151.803 166.304C151.36 165.837 151.138 165.184 151.138 164.344C151.138 163.48 151.36 162.827 151.803 162.384C152.27 161.94 152.935 161.719 153.798 161.719L171.228 161.719C172.091 161.719 172.745 161.94 173.188 162.384C173.655 162.827 173.888 163.48 173.888 164.344C173.888 165.184 173.655 165.837 173.188 166.304C172.745 166.747 172.091 166.969 171.228 166.969L165.733 166.969L165.733 183.454C165.733 184.48 165.465 185.285 164.928 185.869C164.391 186.429 163.586 186.709 162.513 186.709Z" fill="white"/>
<path d="M153.793 225.99C152.696 225.99 151.856 225.71 151.273 225.15C150.713 224.566 150.433 223.738 150.433 222.665L150.433 204.64C150.433 203.566 150.713 202.75 151.273 202.19C151.856 201.606 152.696 201.315 153.793 201.315L165.658 201.315C166.498 201.315 167.128 201.525 167.548 201.945C167.968 202.365 168.178 202.971 168.178 203.765C168.178 204.581 167.968 205.211 167.548 205.655C167.128 206.075 166.498 206.285 165.658 206.285L156.593 206.285L156.593 210.975L164.888 210.975C165.705 210.975 166.323 211.185 166.743 211.605C167.186 212.025 167.408 212.643 167.408 213.46C167.408 214.276 167.186 214.895 166.743 215.315C166.323 215.735 165.705 215.945 164.888 215.945L156.593 215.945L156.593 221.02L165.658 221.02C166.498 221.02 167.128 221.241 167.548 221.685C167.968 222.105 168.178 222.711 168.178 223.505C168.178 224.321 167.968 224.94 167.548 225.36C167.128 225.78 166.498 225.99 165.658 225.99L153.793 225.99ZM182.78 226.305C181.894 226.305 181.17 226.118 180.61 225.745C180.074 225.371 179.619 224.776 179.245 223.96L170.775 205.27C170.402 204.453 170.285 203.718 170.425 203.065C170.565 202.411 170.892 201.91 171.405 201.56C171.919 201.186 172.56 201 173.33 201C174.287 201 174.999 201.21 175.465 201.63C175.955 202.05 176.375 202.668 176.725 203.485L183.865 220.005L181.905 220.005L189.045 203.45C189.395 202.633 189.815 202.026 190.305 201.63C190.795 201.21 191.484 201 192.37 201C193.094 201 193.7 201.186 194.19 201.56C194.68 201.91 194.984 202.411 195.1 203.065C195.24 203.718 195.124 204.453 194.75 205.27L186.245 223.96C185.895 224.776 185.452 225.371 184.915 225.745C184.379 226.118 183.667 226.305 182.78 226.305ZM201.337 225.99C200.24 225.99 199.4 225.71 198.817 225.15C198.257 224.566 197.977 223.738 197.977 222.665L197.977 204.64C197.977 203.566 198.257 202.75 198.817 202.19C199.4 201.606 200.24 201.315 201.337 201.315L213.202 201.315C214.042 201.315 214.672 201.525 215.092 201.945C215.512 202.365 215.722 202.971 215.722 203.765C215.722 204.581 215.512 205.211 215.092 205.655C214.672 206.075 214.042 206.285 213.202 206.285L204.137 206.285L204.137 210.975L212.432 210.975C213.248 210.975 213.867 211.185 214.287 211.605C214.73 212.025 214.952 212.643 214.952 213.46C214.952 214.276 214.73 214.895 214.287 215.315C213.867 215.735 213.248 215.945 212.432 215.945L204.137 215.945L204.137 221.02L213.202 221.02C214.042 221.02 214.672 221.241 215.092 221.685C215.512 222.105 215.722 222.711 215.722 223.505C215.722 224.321 215.512 224.94 215.092 225.36C214.672 225.78 214.042 225.99 213.202 225.99L201.337 225.99ZM222.486 226.305C221.506 226.305 220.759 226.048 220.246 225.535C219.733 225.021 219.476 224.263 219.476 223.26L219.476 204.185C219.476 203.158 219.733 202.376 220.246 201.84C220.759 201.28 221.436 201 222.276 201C223.023 201 223.606 201.14 224.026 201.42C224.446 201.7 224.913 202.166 225.426 202.82L236.521 216.68L235.541 216.68L235.541 204.01C235.541 203.03 235.786 202.283 236.276 201.77C236.789 201.256 237.536 201 238.516 201C239.496 201 240.231 201.256 240.721 201.77C241.234 202.283 241.491 203.03 241.491 204.01L241.491 223.4C241.491 224.286 241.258 224.998 240.791 225.535C240.324 226.048 239.694 226.305 238.901 226.305C238.108 226.305 237.478 226.165 237.011 225.885C236.568 225.581 236.089 225.115 235.576 224.485L224.481 210.59L225.461 210.59L225.461 223.26C225.461 224.263 225.204 225.021 224.691 225.535C224.201 226.048 223.466 226.305 222.486 226.305ZM255.029 226.305C254.003 226.305 253.209 226.025 252.649 225.465C252.089 224.881 251.809 224.076 251.809 223.05L251.809 206.565L246.314 206.565C245.451 206.565 244.786 206.343 244.319 205.9C243.876 205.433 243.654 204.78 243.654 203.94C243.654 203.076 243.876 202.423 244.319 201.98C244.786 201.536 245.451 201.315 246.314 201.315L263.744 201.315C264.608 201.315 265.261 201.536 265.704 201.98C266.171 202.423 266.404 203.076 266.404 203.94C266.404 204.78 266.171 205.433 265.704 205.9C265.261 206.343 264.608 206.565 263.744 206.565L258.249 206.565L258.249 223.05C258.249 224.076 257.981 224.881 257.444 225.465C256.908 226.025 256.103 226.305 255.029 226.305ZM276.942 226.375C276.008 226.375 275.028 226.305 274.002 226.165C272.998 226.048 272.042 225.861 271.132 225.605C270.222 225.348 269.405 225.045 268.682 224.695C268.052 224.391 267.608 223.995 267.352 223.505C267.095 222.991 267.002 222.455 267.072 221.895C267.142 221.335 267.34 220.845 267.667 220.425C267.993 219.981 268.425 219.69 268.962 219.55C269.498 219.386 270.105 219.456 270.782 219.76C271.668 220.18 272.672 220.506 273.792 220.74C274.912 220.973 275.962 221.09 276.942 221.09C278.482 221.09 279.555 220.891 280.162 220.495C280.792 220.075 281.107 219.561 281.107 218.955C281.107 218.418 280.885 217.986 280.442 217.66C280.022 217.333 279.263 217.053 278.167 216.82L274.072 215.945C271.832 215.478 270.163 214.661 269.067 213.495C267.97 212.328 267.422 210.823 267.422 208.98C267.422 207.766 267.667 206.67 268.157 205.69C268.67 204.686 269.382 203.835 270.292 203.135C271.225 202.435 272.322 201.898 273.582 201.525C274.865 201.128 276.288 200.93 277.852 200.93C279.065 200.93 280.29 201.07 281.527 201.35C282.787 201.606 283.872 202.003 284.782 202.54C285.318 202.82 285.703 203.205 285.937 203.695C286.17 204.185 286.263 204.698 286.217 205.235C286.17 205.748 285.983 206.203 285.657 206.6C285.353 206.996 284.933 207.265 284.397 207.405C283.883 207.521 283.265 207.428 282.542 207.125C281.865 206.821 281.095 206.6 280.232 206.46C279.392 206.296 278.575 206.215 277.782 206.215C276.918 206.215 276.183 206.32 275.577 206.53C274.97 206.716 274.503 206.996 274.177 207.37C273.873 207.743 273.722 208.175 273.722 208.665C273.722 209.155 273.92 209.575 274.317 209.925C274.737 210.251 275.495 210.531 276.592 210.765L280.652 211.64C282.915 212.13 284.607 212.935 285.727 214.055C286.847 215.175 287.407 216.633 287.407 218.43C287.407 219.643 287.162 220.74 286.672 221.72C286.182 222.7 285.482 223.54 284.572 224.24C283.662 224.916 282.565 225.441 281.282 225.815C279.998 226.188 278.552 226.375 276.942 226.375Z" fill="#37AE47"/>
<path d="M86.0496 263.969C85.0229 263.969 84.2296 263.689 83.6696 263.129C83.1096 262.546 82.8296 261.741 82.8296 260.714L82.8296 242.234C82.8296 241.184 83.1096 240.379 83.6696 239.819C84.2529 239.259 85.0579 238.979 86.0846 238.979L94.6946 238.979C97.4946 238.979 99.6529 239.668 101.17 241.044C102.71 242.398 103.48 244.288 103.48 246.714C103.48 248.278 103.13 249.643 102.43 250.809C101.753 251.953 100.761 252.839 99.4546 253.469C98.1713 254.076 96.5846 254.379 94.6946 254.379L94.9746 253.749L96.6546 253.749C97.6579 253.749 98.5446 253.994 99.3146 254.484C100.085 254.951 100.726 255.674 101.24 256.654L102.99 259.804C103.363 260.481 103.538 261.146 103.515 261.799C103.491 262.429 103.235 262.954 102.745 263.374C102.278 263.771 101.59 263.969 100.68 263.969C99.7696 263.969 99.0229 263.783 98.4396 263.409C97.8796 263.036 97.3779 262.453 96.9346 261.659L93.7496 255.814C93.4696 255.301 93.1079 254.951 92.6646 254.764C92.2446 254.554 91.7546 254.449 91.1946 254.449L89.2696 254.449L89.2696 260.714C89.2696 261.741 89.0013 262.546 88.4646 263.129C87.9279 263.689 87.1229 263.969 86.0496 263.969ZM89.2696 249.899L93.5396 249.899C94.7763 249.899 95.7213 249.654 96.3746 249.164C97.0279 248.674 97.3546 247.916 97.3546 246.889C97.3546 245.909 97.0279 245.174 96.3746 244.684C95.7213 244.171 94.7763 243.914 93.5396 243.914L89.2696 243.914L89.2696 249.899ZM108.218 263.969C107.495 263.969 106.888 263.806 106.398 263.479C105.908 263.129 105.605 262.663 105.488 262.079C105.371 261.473 105.476 260.796 105.803 260.049L114.518 241.289C114.938 240.379 115.451 239.714 116.058 239.294C116.688 238.874 117.4 238.664 118.193 238.664C118.986 238.664 119.675 238.874 120.258 239.294C120.865 239.714 121.39 240.379 121.833 241.289L130.548 260.049C130.921 260.796 131.05 261.473 130.933 262.079C130.84 262.686 130.548 263.153 130.058 263.479C129.591 263.806 129.008 263.969 128.308 263.969C127.375 263.969 126.651 263.759 126.138 263.339C125.648 262.919 125.205 262.243 124.808 261.309L122.918 256.864L125.368 258.649L110.948 258.649L113.433 256.864L111.543 261.309C111.123 262.243 110.691 262.919 110.248 263.339C109.805 263.759 109.128 263.969 108.218 263.969ZM118.123 245.699L114.063 255.394L113.083 253.714L123.268 253.714L122.288 255.394L118.193 245.699L118.123 245.699ZM137.117 263.654C136.021 263.654 135.181 263.374 134.597 262.814C134.037 262.231 133.757 261.403 133.757 260.329L133.757 242.304C133.757 241.231 134.037 240.414 134.597 239.854C135.181 239.271 136.021 238.979 137.117 238.979L143.977 238.979C148.271 238.979 151.584 240.053 153.917 242.199C156.274 244.346 157.452 247.379 157.452 251.299C157.452 253.259 157.149 255.009 156.542 256.549C155.936 258.066 155.061 259.361 153.917 260.434C152.774 261.484 151.362 262.289 149.682 262.849C148.026 263.386 146.124 263.654 143.977 263.654L137.117 263.654ZM140.197 258.439L143.557 258.439C144.794 258.439 145.856 258.288 146.742 257.984C147.652 257.681 148.399 257.238 148.982 256.654C149.589 256.071 150.032 255.336 150.312 254.449C150.616 253.563 150.767 252.513 150.767 251.299C150.767 248.873 150.172 247.088 148.982 245.944C147.792 244.778 145.984 244.194 143.557 244.194L140.197 244.194L140.197 258.439ZM161.812 263.969C161.088 263.969 160.482 263.806 159.992 263.479C159.502 263.129 159.198 262.663 159.082 262.079C158.965 261.473 159.07 260.796 159.397 260.049L168.112 241.289C168.532 240.379 169.045 239.714 169.652 239.294C170.282 238.874 170.993 238.664 171.787 238.664C172.58 238.664 173.268 238.874 173.852 239.294C174.458 239.714 174.983 240.379 175.427 241.289L184.142 260.049C184.515 260.796 184.643 261.473 184.527 262.079C184.433 262.686 184.142 263.153 183.652 263.479C183.185 263.806 182.602 263.969 181.902 263.969C180.968 263.969 180.245 263.759 179.732 263.339C179.242 262.919 178.798 262.243 178.402 261.309L176.512 256.864L178.962 258.649L164.542 258.649L167.027 256.864L165.137 261.309C164.717 262.243 164.285 262.919 163.842 263.339C163.398 263.759 162.722 263.969 161.812 263.969ZM171.717 245.699L167.657 255.394L166.677 253.714L176.862 253.714L175.882 255.394L171.787 245.699L171.717 245.699ZM190.571 263.969C189.544 263.969 188.751 263.689 188.191 263.129C187.631 262.546 187.351 261.741 187.351 260.714L187.351 242.234C187.351 241.184 187.631 240.379 188.191 239.819C188.774 239.259 189.579 238.979 190.606 238.979L199.216 238.979C202.016 238.979 204.174 239.668 205.691 241.044C207.231 242.398 208.001 244.288 208.001 246.714C208.001 248.278 207.651 249.643 206.951 250.809C206.274 251.953 205.283 252.839 203.976 253.469C202.693 254.076 201.106 254.379 199.216 254.379L199.496 253.749L201.176 253.749C202.179 253.749 203.066 253.994 203.836 254.484C204.606 254.951 205.248 255.674 205.761 256.654L207.511 259.804C207.884 260.481 208.059 261.146 208.036 261.799C208.013 262.429 207.756 262.954 207.266 263.374C206.799 263.771 206.111 263.969 205.201 263.969C204.291 263.969 203.544 263.783 202.961 263.409C202.401 263.036 201.899 262.453 201.456 261.659L198.271 255.814C197.991 255.301 197.629 254.951 197.186 254.764C196.766 254.554 196.276 254.449 195.716 254.449L193.791 254.449L193.791 260.714C193.791 261.741 193.523 262.546 192.986 263.129C192.449 263.689 191.644 263.969 190.571 263.969ZM193.791 249.899L198.061 249.899C199.298 249.899 200.243 249.654 200.896 249.164C201.549 248.674 201.876 247.916 201.876 246.889C201.876 245.909 201.549 245.174 200.896 244.684C200.243 244.171 199.298 243.914 198.061 243.914L193.791 243.914L193.791 249.899Z" fill="white"/>
<defs>
<radialGradient id="paint0_angular_163_134" cx="0" cy="0" r="1" gradientUnits="userSpaceOnUse" gradientTransform="translate(184.399 184.346) rotate(90) scale(130.5 131)">
<stop stop-color="#37AE47" stop-opacity="0.03"/>
<stop offset="0.630208" stop-color="#37AE47" stop-opacity="0"/>
<stop offset="1" stop-color="#24A64D"/>
</radialGradient>
</defs>
</svg>
